<?xml version="1.0" encoding="utf-8"?>
<!-- Generator: Adobe Illustrator 23.0.6, SVG Export Plug-In . SVG Version: 6.00 Build 0)  -->
<svg version="1.1" id="Icons" xmlns="http://www.w3.org/2000/svg" xmlns:xlink="http://www.w3.org/1999/xlink" x="0px" y="0px"
	 viewBox="0 0 48 48" style="enable-background:new 0 0 48 48;" xml:space="preserve">
<style type="text/css">
	.st0{fill:#9F5AE5;}
	.st1{fill:#BF8DF2;}
	.st2{fill:none;stroke:#45413C;stroke-linecap:round;stroke-linejoin:round;}
	.st3{fill:#FFCEBF;}
	.st4{fill:#FFDCD1;}
	.st5{fill:#FFCEBF;stroke:#45413C;stroke-linecap:round;stroke-linejoin:round;}
	.st6{fill:#A86C4D;}
	.st7{fill:#DE926A;}
</style>
<title></title>
<path id="_Path_" class="st0" d="M14.6,38.5c-0.1,0.7-0.2,1.4-0.2,2.1v5c0,0.6,0.4,1,1,1h9.4c4.8,0.1,8.8-3.5,9.3-8.3
	c0.4-4.8-2.9-9.1-7.7-9.8c-0.4-0.1-0.7-0.4-0.8-0.8c-0.4-1.8-1.3-3.5-2.7-4.7c-1.3-1.1-2.9-1.7-4.6-1.7h-1.2c-1.4,0-2.5,1.1-2.5,2.5
	l0,0C14.6,28.7,15.4,33.6,14.6,38.5z"/>
<g id="_Group_">
	<path id="_Path_2" class="st1" d="M34.2,38.3c0.4-4.8-2.9-9.1-7.7-9.8c-0.4-0.1-0.7-0.4-0.8-0.8c-0.4-1.8-1.3-3.5-2.7-4.7
		c-1.3-1.1-3-1.7-4.7-1.7h-1.2c-1.4,0-2.5,1.1-2.5,2.5l0,0c0,0.8,0,1.5,0,2.3c0.2-1.2,1.3-2,2.5-2h1.2c1.7,0,3.3,0.6,4.6,1.7
		c1.4,1.2,2.3,2.9,2.7,4.7c0.1,0.4,0.4,0.7,0.8,0.8c3.9,0.6,7,3.6,7.6,7.5C34.1,38.7,34.2,38.5,34.2,38.3z"/>
</g>
<path id="_Path_3" class="st2" d="M14.6,38.5c-0.1,0.7-0.2,1.4-0.2,2.1v5c0,0.6,0.4,1,1,1h9.4c4.8,0.1,8.8-3.5,9.3-8.3
	c0.4-4.8-2.9-9.1-7.7-9.8c-0.4-0.1-0.7-0.4-0.8-0.8c-0.4-1.8-1.3-3.5-2.7-4.7c-1.3-1.1-2.9-1.7-4.6-1.7h-1.2c-1.4,0-2.5,1.1-2.5,2.5
	l0,0C14.6,28.7,15.4,33.6,14.6,38.5z"/>
<path id="_Rectangle_" class="st3" d="M31.1,29c0.6,0.3,0.8,1.1,0.5,1.6l-0.1,0.1l0,0c-0.6,1.1-1.9,1.4-3,0.9l-0.2-0.1l0,0
	c-1.1-0.6-1.4-1.9-0.9-3l0.1-0.1l0,0c0.3-0.6,1.1-0.8,1.6-0.5L31.1,29C31.1,29,31.1,29,31.1,29z"/>
<path id="_Path_4" class="st4" d="M31.6,30.6c0.3-0.6,0.1-1.3-0.5-1.6l-1.9-1c-0.6-0.3-1.3-0.1-1.6,0.4l-0.1,0.1
	c-0.2,0.3-0.3,0.7-0.3,1.1c0.4-0.2,0.8-0.2,1.2,0l2.6,1.4l0.1,0.1c0.1-0.1,0.2-0.3,0.3-0.4L31.6,30.6z"/>
<path id="_Rectangle_2" class="st2" d="M31.1,29c0.6,0.3,0.8,1.1,0.5,1.6l-0.1,0.1l0,0c-0.6,1.1-1.9,1.4-3,0.9l-0.2-0.1l0,0
	c-1.1-0.6-1.4-1.9-0.9-3l0.1-0.1l0,0c0.3-0.6,1.1-0.8,1.6-0.5L31.1,29C31.1,29,31.1,29,31.1,29z"/>
<path id="_Path_5" class="st3" d="M16.8,28.7l0.5,1.3c1.7,4.2,5.3,7.3,9.7,8.3l0,0c1.1,0.2,2.1-0.4,2.4-1.5l0,0
	c0.2-1.1-0.4-2.1-1.5-2.4l0,0c-3.1-0.7-5.7-2.9-6.9-5.9l-0.5-1.3L16.8,28.7z"/>
<path id="_Path_6" class="st4" d="M28,34.5c-3.1-0.7-5.7-2.9-6.9-5.9l-0.5-1.3L19,27.8l0.5,1.2c1.4,3.5,4.5,6.1,8.2,7
	c0.7,0.2,1.3,0.6,1.6,1.3c0.1-0.1,0.1-0.3,0.2-0.5C29.7,35.8,29,34.7,28,34.5z"/>
<path id="_Path_7" class="st2" d="M16.8,28.7l0.5,1.3c1.7,4.2,5.3,7.3,9.7,8.3l0,0c1.1,0.2,2.1-0.4,2.4-1.5l0,0
	c0.2-1.1-0.4-2.1-1.5-2.4l0,0c-3.1-0.7-5.7-2.9-6.9-5.9l-0.5-1.3L16.8,28.7z"/>
<path id="_Rectangle_3" class="st0" d="M19.4,23.4l1.6,4l0,0l-4.5,1.8l0,0l-1.6-4c-0.5-1.2,0.1-2.6,1.3-3.1l0,0
	C17.4,21.6,18.9,22.2,19.4,23.4z"/>
<path class="st1" d="M14.9,25.2l0.7,1.7c-0.4-1.2,0.1-2.4,1.3-3c1.2-0.6,2.6,0,3.2,1.2l-0.7-1.7c-0.5-1.2-1.9-1.8-3.1-1.3
	C15,22.6,14.4,24,14.9,25.2z"/>
<path id="_Rectangle_4" class="st2" d="M19.4,23.4l1.6,4l0,0l-4.5,1.8l0,0l-1.6-4c-0.5-1.2,0.1-2.6,1.3-3.1l0,0
	C17.4,21.6,18.9,22.2,19.4,23.4z"/>
<ellipse id="_Path_8" transform="matrix(0.9896 -0.144 0.144 0.9896 -1.5465 2.8679)" class="st5" cx="19" cy="12.1" rx="6.9" ry="7.3"/>
<path id="_Path_9" class="st6" d="M19.7,2.9c-3.8-0.7-7.7,1.3-8.7,4c-1.5,4.4-1.4,12-0.7,12.9s4.1,2.7,7.9,2.3c0.1,0,0.2,0,0.2-0.1
	c0.2-0.1,0.3-0.5,0.2-0.7c-1-2-1.4-4.2-1.3-6.4c-0.5,0-1-0.2-1.4-0.6c-0.8-0.8-0.8-2,0-2.8c0.8-0.6,1.8-0.6,2.6-0.1c0,0,1,0.7,4-0.2
	c1.5-0.3,2.8-1,4-1.9C26.5,7.4,24.7,3.8,19.7,2.9z"/>
<g id="_Group_2">
	<path id="_Path_10" class="st7" d="M25.9,9.9c0.2-0.1,0.4-0.3,0.6-0.4c0-2.1-1.8-5.6-6.7-6.5c-3.8-0.7-7.7,1.3-8.7,4
		c-1,3.3-1.4,6.7-1.2,10.2c0.1-2.5,0.5-5,1.2-7.5C12,7,15.9,5,19.7,5.7C22.4,6,24.6,7.6,25.9,9.9z"/>
</g>
<path id="_Path_11" class="st2" d="M19.7,2.9c-3.8-0.7-7.7,1.3-8.7,4c-1.5,4.4-1.4,12-0.7,12.9s4.1,2.7,7.9,2.3c0.1,0,0.2,0,0.2-0.1
	c0.2-0.1,0.3-0.5,0.2-0.7c-1-2-1.4-4.2-1.3-6.4c-0.5,0-1-0.2-1.4-0.6c-0.8-0.8-0.8-2,0-2.8c0.8-0.6,1.8-0.6,2.6-0.1c0,0,1,0.7,4-0.2
	c1.5-0.3,2.8-1,4-1.9C26.5,7.4,24.7,3.8,19.7,2.9z"/>
</svg>
